HIERARCHY
ROOT root
{
	OFFSET	0	13.1	24.9
	CHANNELS 6  Xposition Yposition Zposition Xrotation Yrotation Zrotation
	JOINT spine_1
	{
		OFFSET	0	9.99999	0
		CHANNELS 3  Xrotation Yrotation Zrotation
		JOINT spine_2
		{
			OFFSET	0	112	-10
			CHANNELS 3  Xrotation Yrotation Zrotation
			JOINT spine_3
			{
				OFFSET	0	206.5	19.3
				CHANNELS 3  Xrotation Yrotation Zrotation
				JOINT spine_4
				{
					OFFSET	0	110.4	14.6
					CHANNELS 3  Xrotation Yrotation Zrotation
					JOINT neck_1
					{
						OFFSET	0	71.8	-50.3
						CHANNELS 3  Xrotation Yrotation Zrotation
						JOINT neck_2
						{
							OFFSET	0	86.2	-25.8
							CHANNELS 3  Xrotation Yrotation Zrotation
							JOINT head_ee
							{
								OFFSET	0	179.8	-8.7
								CHANNELS 3  Xrotation Yrotation Zrotation
								End Site
								{
									OFFSET	1	0	0
								}
							}
						}
					}
					JOINT left_clavicle
					{
						OFFSET	-43.2	22.4	-70.8
						CHANNELS 3  Xrotation Yrotation Zrotation
						JOINT left_shoulder
						{
							OFFSET	-93.9	-5.79999	48.7
							CHANNELS 3  Xrotation Yrotation Zrotation
							JOINT left_elbow
							{
								OFFSET	-291.4	-30.8	15.2
								CHANNELS 3  Xrotation Yrotation Zrotation
								JOINT left_lowarm_twist
								{
									OFFSET	-110.7	-3.89999	13.6
									CHANNELS 3  Xrotation Yrotation Zrotation
									JOINT left_hand
									{
										OFFSET	-110.7	-3.89999	13.6
										CHANNELS 3  Xrotation Yrotation Zrotation
										JOINT left_ee
										{
											OFFSET	-80.8	-5.10001	12.1
											CHANNELS 3  Xrotation Yrotation Zrotation
											End Site
											{
												OFFSET	1	0	0
											}
										}
									}
								}
							}
						}
					}
					JOINT right_clavicle
					{
						OFFSET	43.2	22.4	-70.8
						CHANNELS 3  Xrotation Yrotation Zrotation
						JOINT right_shoulder
						{
							OFFSET	93.9	-5.79999	48.7
							CHANNELS 3  Xrotation Yrotation Zrotation
							JOINT right_elbow
							{
								OFFSET	291.4	-30.8	15.2
								CHANNELS 3  Xrotation Yrotation Zrotation
								JOINT right_lowarm_twist
								{
									OFFSET	110.7	-3.89999	13.6
									CHANNELS 3  Xrotation Yrotation Zrotation
									JOINT right_hand
									{
										OFFSET	110.7	-3.89999	13.6
										CHANNELS 3  Xrotation Yrotation Zrotation
										JOINT right_ee
										{
											OFFSET	80.8	-5.10001	12.1
											CHANNELS 3  Xrotation Yrotation Zrotation
											End Site
											{
												OFFSET	1	0	0
											}
										}
									}
								}
							}
						}
					}
				}
			}
		}
	}
	JOINT left_hip
	{
		OFFSET	-82.8	-127.5	0.300001
		CHANNELS 3  Xrotation Yrotation Zrotation
		JOINT left_knee
		{
			OFFSET	-28.2	-396.7	2.2
			CHANNELS 3  Xrotation Yrotation Zrotation
			JOINT left_ankle
			{
				OFFSET	-11.7	-411.3	35.4
				CHANNELS 3  Xrotation Yrotation Zrotation
				JOINT left_toes
				{
					OFFSET	0	-60	-88.6
					CHANNELS 3  Xrotation Yrotation Zrotation
					JOINT left_foot_ee
					{
						OFFSET	-22.5	-16.5	-42.2
						CHANNELS 3  Xrotation Yrotation Zrotation
						End Site
						{
							OFFSET	1	0	0
						}
					}
				}
			}
		}
	}
	JOINT right_hip
	{
		OFFSET	82.8	-127.5	0.300001
		CHANNELS 3  Xrotation Yrotation Zrotation
		JOINT right_knee
		{
			OFFSET	28.2	-396.7	2.2
			CHANNELS 3  Xrotation Yrotation Zrotation
			JOINT right_ankle
			{
				OFFSET	11.7	-411.3	35.4
				CHANNELS 3  Xrotation Yrotation Zrotation
				JOINT right_toes
				{
					OFFSET	0	-60	-88.6
					CHANNELS 3  Xrotation Yrotation Zrotation
					JOINT right_foot_ee
					{
						OFFSET	22.5	-16.5	-42.2
						CHANNELS 3  Xrotation Yrotation Zrotation
						End Site
						{
							OFFSET	1	0	0
						}
					}
				}
			}
		}
	}
}
MOTION
Frames: 14
Frame Time: 0.02
999.24914655 733.239 -1481.2810368 14.9399733381 59.8669181951 -17.0373501742 -0.665654 0.830579 3.02647 -0.660783 0.636408 3.07313 -0.622475 -0.0575308 3.13774 -0.635945 0.438496 3.10752 -15.3388 12.4016 -2.07069 -15.9349 24.9429 2.41649 -0.0 0.0 -0.0 -3.63526 14.9239 -4.09919 -16.7645 -12.1799 73.1901 0.285755 -8.05713 0.0201252 -31.9316 -2.13677 3.42306 0.350363 -19.9127 -6.13318 -0.0 0.0 -0.0 12.0096 27.4272 -23.2346 -8.66626 45.8524 -58.994 1.27307 32.2358 -0.367896 12.1544 -0.267184 1.52673 1.43614 -19.9298 -16.8332 0.0 0.0 0.0 2.03617 30.5368 -5.40346 -53.7997 -1.56894 7.80792 38.6542 -1.57125 -4.77174 -38.8357 0.0 0.0 -0.0 0.0 -0.0 -2.8079 36.6252 -7.27523 -16.1446 -0.321622 -2.44849 14.5079 -3.52352 2.03302 10.7168 -0.0 -0.0 0.0 0.0 0.0 
989.285125136 733.019 -1492.40323516 13.2022426303 57.742850774 -14.6875758012 -0.639611 1.00428 3.09529 -0.634642 0.805389 3.15285 -0.585776 0.0920359 3.25269 -0.60003 0.604317 3.19744 -16.3345 11.7735 -2.64226 -16.949 24.0754 1.87006 -0.0 0.0 -0.0 -3.51744 15.0633 -3.87899 -17.1185 -11.7587 74.0529 0.197387 -5.58476 0.00962753 -31.8878 -2.13261 3.4193 0.190571 -18.8495 -6.74503 -0.0 0.0 -0.0 12.0813 26.7375 -23.481 -7.08431 46.6461 -58.6063 1.3641 34.0464 -0.417668 11.4665 -0.26076 1.4391 1.22652 -20.358 -15.6627 0.0 0.0 0.0 7.04683 31.5381 -8.46678 -54.6134 -1.64726 7.90588 40.6613 -1.51169 -4.94503 -38.4022 0.0 0.0 -0.0 0.0 -0.0 -3.53808 34.0961 -6.80962 -15.0941 -0.321805 -2.28732 11.9432 -3.17042 1.6913 9.39921 -0.0 -0.0 0.0 0.0 0.0 
969.774229544 728.663 -1496.46518308 12.2461393128 57.3697461442 -13.6328135783 -0.566466 1.0458 3.05242 -0.561683 0.849546 3.1127 -0.511147 0.14822 3.22304 -0.525044 0.655123 3.1593 -14.7779 12.2109 -2.18895 -15.3147 24.6383 2.10014 -0.0 0.0 -0.0 -3.94192 15.4643 -4.47995 -19.477 -11.6919 74.9055 0.280382 -7.90757 0.0193789 -31.6981 -2.11458 3.40294 0.114647 -18.2158 -6.98356 -0.0 0.0 -0.0 12.1941 26.8263 -23.728 -6.07909 45.4366 -57.5742 1.55198 37.5507 -0.527621 13.0394 -0.273901 1.63957 0.785105 -15.6002 -11.2854 0.0 0.0 0.0 11.8905 28.1914 -10.1125 -54.2899 -1.61595 7.86706 39.5809 3.35136 -4.82337 -38.1848 0.0 0.0 -0.0 0.0 -0.0 -5.70456 36.0228 -6.0247 -13.6618 -0.317293 -2.06762 17.4187 -2.69373 2.41365 10.1234 -0.0 -0.0 0.0 0.0 0.0 
949.000330582 726.216 -1482.47805105 13.5306962425 60.5732281989 -14.9961232611 -0.642587 0.904771 3.11987 -0.637448 0.704515 3.17105 -0.593988 -0.0110038 3.24828 -0.608359 0.501871 3.20933 -15.4499 11.7296 -1.8789 -15.9842 23.5481 2.36355 -0.0 0.0 -0.0 -3.75699 15.5508 -4.16318 -21.2851 -12.1842 74.9173 0.279644 -7.88702 0.0192776 -31.9205 -2.13572 3.42211 0.080857 -16.6523 -6.54496 -0.0 0.0 -0.0 12.4967 28.09 -24.2617 -6.07984 45.3519 -55.8918 1.55914 37.678 -0.531987 14.0216 -0.279313 1.7649 0.897078 -12.9806 -11.0476 0.0 0.0 0.0 14.663 20.3967 -10.6552 -48.8073 -1.11989 7.18396 35.738 3.89786 -4.47123 -38.6326 0.0 0.0 -0.0 0.0 -0.0 -6.14847 35.6114 -5.69275 -16.965 -0.319424 -2.57436 20.7767 -2.05318 2.83727 12.1059 -0.0 -0.0 0.0 0.0 0.0 
928.491665424 725.09 -1476.95272279 14.2026936532 62.5195235712 -15.5158036787 -0.708342 0.75897 3.15953 -0.702961 0.556489 3.20136 -0.667422 -0.166477 3.24506 -0.681947 0.347835 3.23067 -14.9373 11.5556 -2.34547 -15.4282 23.4813 1.74678 -0.0 0.0 -0.0 -3.61738 15.6893 -3.90949 -22.6556 -12.6563 75.4244 0.282249 -7.95955 0.0196367 -32.4539 -2.18669 3.46773 0.0994478 -15.0013 -5.71581 -0.0 0.0 -0.0 12.5692 28.7336 -24.3419 -5.8626 44.3975 -54.9686 1.72564 40.5214 -0.637032 14.4635 -0.281046 1.82132 0.803834 -9.73113 -9.23023 0.0 0.0 0.0 15.7895 15.5346 -9.72938 -45.1692 -0.827942 6.70624 32.3158 6.5059 -4.13077 -38.8625 0.0 0.0 -0.0 0.0 -0.0 -7.15417 36.4019 -5.82831 -17.0324 -0.319164 -2.58468 21.1931 -3.56572 2.8827 11.8187 -0.0 -0.0 0.0 0.0 0.0 
916.641539266 723.876 -1469.90004776 12.7007315999 64.0273294754 -14.0419393916 -0.731995 1.03779 3.15817 -0.726834 0.834833 3.21772 -0.675045 0.10135 3.3226 -0.689905 0.624538 3.26501 -14.5295 11.0759 -2.11705 -14.9506 22.4241 1.69803 -0.0 0.0 -0.0 -3.5664 16.224 -3.71586 -23.8518 -15.4547 74.1179 0.371933 -10.4396 0.0339781 -32.5427 -2.19522 3.47528 -0.0813657 -12.6012 -5.91356 -0.0 0.0 -0.0 12.4998 28.678 -24.1911 -5.47625 43.5878 -53.8377 1.8499 42.4975 -0.719394 15.9296 -0.283682 2.00855 0.590413 -3.92936 -5.54893 0.0 0.0 0.0 17.1425 10.6958 -10.1816 -42.8274 -0.656372 6.38949 28.9342 6.06286 -3.77308 -39.8516 0.0 0.0 -0.0 0.0 -0.0 -7.8358 37.3242 -5.53071 -14.9065 -0.321526 -2.25855 24.7537 -3.98026 3.30576 12.3745 -0.0 -0.0 0.0 0.0 0.0 
898.127776349 719.766 -1459.84920531 12.2037817524 68.0638478256 -13.4848158431 -0.696291 0.685106 3.10008 -0.691077 0.486551 3.13734 -0.660268 -0.220194 3.16717 -0.674153 0.282508 3.16222 -13.813 11.1988 -2.86793 -14.2054 23.1016 0.879042 -0.0 0.0 -0.0 -3.69167 17.5974 -3.62151 -24.272 -16.7063 73.7081 0.43929 -12.277 0.0472456 -33.1879 -2.25753 3.52974 0.329728 -8.62188 -1.43477 -0.0 0.0 -0.0 12.7802 28.5194 -24.8533 -5.39063 41.6689 -52.259 1.88461 43.0282 -0.742959 16.441 -0.283475 2.07387 0.83307 -0.829731 -5.91108 0.0 0.0 0.0 19.3646 8.54016 -10.1558 -29.4368 0.065225 4.4676 21.0594 7.85664 -2.86146 -39.3693 0.0 0.0 -0.0 0.0 -0.0 -10.3082 34.88 -4.39535 -9.24913 -0.268908 -1.39245 26.9972 -6.16526 3.55875 12.5462 -0.0 -0.0 0.0 0.0 0.0 
882.876112931 718.312 -1452.44730999 8.59681768112 70.8809724125 -10.0374785348 -0.639736 0.643166 3.18342 -0.634206 0.439401 3.21784 -0.605325 -0.280985 3.23551 -0.619856 0.233253 3.23929 -11.7911 10.8426 -2.98292 -12.0338 22.4669 0.220843 -0.0 0.0 -0.0 -3.89105 17.4919 -3.95439 -24.366 -17.8869 73.3286 0.464679 -12.9632 0.0527927 -34.1058 -2.34723 3.60601 0.442776 -6.7647 0.118615 -0.0 0.0 -0.0 12.7662 27.2697 -24.984 -4.87335 39.507 -51.0312 1.93356 43.7613 -0.776589 17.0244 -0.282526 2.14838 1.08367 3.36445 -5.87473 0.0 0.0 0.0 18.4665 5.75879 -8.72693 -20.9244 0.283505 3.18068 15.1278 8.7627 -2.10988 -38.5344 0.0 0.0 -0.0 0.0 -0.0 -11.4682 34.6967 -3.22664 -4.41021 -0.156292 -0.658622 27.8376 -7.43386 3.65317 12.2926 -0.0 -0.0 0.0 0.0 0.0 
883.160036598 718.312 -1447.00137345 8.88152841465 71.5116151531 -10.338236837 -0.639736 0.643166 3.18342 -0.634206 0.439401 3.21784 -0.605325 -0.280985 3.23551 -0.619856 0.233253 3.23929 -11.7911 10.8426 -2.98292 -12.0338 22.4669 0.220843 -0.0 0.0 -0.0 -3.89105 17.4919 -3.95439 -24.366 -17.8869 73.3286 0.464679 -12.9632 0.0527927 -34.1058 -2.34723 3.60601 0.442776 -6.7647 0.118615 -0.0 0.0 -0.0 12.7662 27.2697 -24.984 -4.87335 39.507 -51.0312 1.93356 43.7613 -0.776589 17.0244 -0.282526 2.14838 1.08367 3.36445 -5.87473 0.0 0.0 0.0 18.4665 5.75879 -8.72693 -20.9244 0.283505 3.18068 15.1278 8.7627 -2.10988 -38.5344 0.0 0.0 -0.0 0.0 -0.0 -11.4682 34.6967 -3.22664 -4.41021 -0.156292 -0.658622 27.8376 -7.43386 3.65317 12.2926 -0.0 -0.0 0.0 0.0 0.0 
867.797500602 714.212 -1447.98053872 6.81882025806 72.6601775521 -8.50319606516 -0.617534 0.663073 3.29955 -0.611592 0.45189 3.335 -0.58082 -0.293214 3.35266 -0.596423 0.23965 3.35691 -9.92165 10.385 -3.32972 -10.0336 21.7892 -0.63038 -0.0 0.0 -0.0 -3.66141 18.3668 -3.40992 -24.657 -19.0666 72.1722 0.489047 -13.6183 0.0583947 -35.5932 -2.49516 3.72653 0.7138 -4.50128 2.90273 -0.0 0.0 -0.0 12.7583 26.9779 -25.0021 -3.70991 38.1165 -51.1396 2.01405 44.929 -0.832856 17.7818 -0.280162 2.2451 1.31747 6.93272 -5.96146 0.0 0.0 0.0 19.5276 4.20344 -8.51369 -11.7484 0.3027 1.77442 10.8827 8.72683 -1.54228 -37.4383 0.0 0.0 -0.0 0.0 -0.0 -13.3491 33.6689 -2.19424 -0.154592 -0.00633452 -0.0228779 30.3614 -9.0087 3.93161 12.9802 -0.0 -0.0 0.0 0.0 0.0 
868.343384517 714.212 -1439.2725812 7.21825626749 73.6427202715 -8.92053169453 -0.617534 0.663073 3.29955 -0.611592 0.45189 3.335 -0.58082 -0.293214 3.35266 -0.596423 0.23965 3.35691 -9.92165 10.385 -3.32972 -10.0336 21.7892 -0.63038 -0.0 0.0 -0.0 -3.66141 18.3668 -3.40992 -24.657 -19.0666 72.1722 0.489047 -13.6183 0.0583947 -35.5932 -2.49516 3.72653 0.7138 -4.50128 2.90273 -0.0 0.0 -0.0 12.7583 26.9779 -25.0021 -3.70991 38.1165 -51.1396 2.01405 44.929 -0.832856 17.7818 -0.280162 2.2451 1.31747 6.93272 -5.96146 0.0 0.0 0.0 19.5276 4.20344 -8.51369 -11.7484 0.3027 1.77442 10.8827 8.72683 -1.54228 -37.4383 0.0 0.0 -0.0 0.0 -0.0 -13.3491 33.6689 -2.19424 -0.154592 -0.00633452 -0.0228779 30.3614 -9.0087 3.93161 12.9802 -0.0 -0.0 0.0 0.0 0.0 
868.731425235 714.212 -1434.19581571 7.47467330995 74.2156707132 -9.18737358757 -0.617534 0.663073 3.29955 -0.611592 0.45189 3.335 -0.58082 -0.293214 3.35266 -0.596423 0.23965 3.35691 -9.92165 10.385 -3.32972 -10.0336 21.7892 -0.63038 -0.0 0.0 -0.0 -3.66141 18.3668 -3.40992 -24.657 -19.0666 72.1722 0.489047 -13.6183 0.0583947 -35.5932 -2.49516 3.72653 0.7138 -4.50128 2.90273 -0.0 0.0 -0.0 12.7583 26.9779 -25.0021 -3.70991 38.1165 -51.1396 2.01405 44.929 -0.832856 17.7818 -0.280162 2.2451 1.31747 6.93272 -5.96146 0.0 0.0 0.0 19.5276 4.20344 -8.51369 -11.7484 0.3027 1.77442 10.8827 8.72683 -1.54228 -37.4383 0.0 0.0 -0.0 0.0 -0.0 -13.3491 33.6689 -2.19424 -0.154592 -0.00633452 -0.0228779 30.3614 -9.0087 3.93161 12.9802 -0.0 -0.0 0.0 0.0 0.0 
869.180228463 714.212 -1429.01865506 7.75658463992 74.8000769134 -9.47990987938 -0.617534 0.663073 3.29955 -0.611592 0.45189 3.335 -0.58082 -0.293214 3.35266 -0.596423 0.23965 3.35691 -9.92165 10.385 -3.32972 -10.0336 21.7892 -0.63038 -0.0 0.0 -0.0 -3.66141 18.3668 -3.40992 -24.657 -19.0666 72.1722 0.489047 -13.6183 0.0583947 -35.5932 -2.49516 3.72653 0.7138 -4.50128 2.90273 -0.0 0.0 -0.0 12.7583 26.9779 -25.0021 -3.70991 38.1165 -51.1396 2.01405 44.929 -0.832856 17.7818 -0.280162 2.2451 1.31747 6.93272 -5.96146 0.0 0.0 0.0 19.5276 4.20344 -8.51369 -11.7484 0.3027 1.77442 10.8827 8.72683 -1.54228 -37.4383 0.0 0.0 -0.0 0.0 -0.0 -13.3491 33.6689 -2.19424 -0.154592 -0.00633452 -0.0228779 30.3614 -9.0087 3.93161 12.9802 -0.0 -0.0 0.0 0.0 0.0 
870.034536758 714.212 -1420.51126152 8.27141731732 75.76072593 -10.0121932919 -0.617534 0.663073 3.29955 -0.611592 0.45189 3.335 -0.58082 -0.293214 3.35266 -0.596423 0.23965 3.35691 -9.92165 10.385 -3.32972 -10.0336 21.7892 -0.63038 -0.0 0.0 -0.0 -3.66141 18.3668 -3.40992 -24.657 -19.0666 72.1722 0.489047 -13.6183 0.0583947 -35.5932 -2.49516 3.72653 0.7138 -4.50128 2.90273 -0.0 0.0 -0.0 12.7583 26.9779 -25.0021 -3.70991 38.1165 -51.1396 2.01405 44.929 -0.832856 17.7818 -0.280162 2.2451 1.31747 6.93272 -5.96146 0.0 0.0 0.0 19.5276 4.20344 -8.51369 -11.7484 0.3027 1.77442 10.8827 8.72683 -1.54228 -37.4383 0.0 0.0 -0.0 0.0 -0.0 -13.3491 33.6689 -2.19424 -0.154592 -0.00633452 -0.0228779 30.3614 -9.0087 3.93161 12.9802 -0.0 -0.0 0.0 0.0 0.0 
